<?xml version="1.0" encoding="UTF-8" standalone="no"?>
<svg viewBox="0 0 71 98" version="1.1" xmlns="http://www.w3.org/2000/svg" xmlns:xlink="http://www.w3.org/1999/xlink" xmlns:sketch="http://www.bohemiancoding.com/sketch/ns">
    <!-- Generator: Sketch 3.3.3 (12081) - http://www.bohemiancoding.com/sketch -->
    <title>sans-serif copy</title>
    <desc>Created with Sketch.</desc>
    <defs></defs>
    <g id="Page-1" stroke="none" stroke-width="1" fill="none" fill-rule="evenodd" sketch:type="MSPage">
        <g id="Artboard-15" sketch:type="MSArtboardGroup" transform="translate(-15.000000, -1.000000)" fill="#55CE0F">
            <g id="sans-serif-copy" sketch:type="MSLayerGroup" transform="translate(46.020695, 45.212982) rotate(-35.000000) translate(-46.020695, -45.212982) translate(5.520695, 2.212982)">
                <path d="M1.70408389,51.3004421 C-0.653909075,60.8379033 0.271299845,69.7703989 3.2479213,77.6215959 C3.87790452,79.2832524 4.55691038,80.7668357 5.24313885,82.0591028 C5.49007102,82.5241116 5.72304538,82.9357938 5.93693539,83.2924724 C6.07698028,83.5260084 6.18756192,83.700877 6.26359441,83.8153748 C7.05542082,85.0077909 8.3917162,85.7245129 9.82309498,85.7245129 L56.8186936,85.7245129 C59.1785135,85.7245129 61.0915255,83.8115009 61.0915255,81.451681 C61.0915255,79.0918611 59.1785135,77.1788491 56.8186936,77.1788491 C56.8186936,77.1788491 12.5191953,77.7346973 12.2240247,77.1788486 C11.7009499,76.1938234 11.7372744,75.9074832 11.2385746,74.5921024 C8.83903112,68.2630179 8.09330932,61.0633936 9.99996495,53.3514731 C12.6382109,42.6804623 20.1380407,32.1027103 33.7751688,21.9584762 C35.668589,20.5500202 36.0617289,17.8733299 34.6532777,15.9799162 C33.2448266,14.0865025 30.5681363,13.6933627 28.6747226,15.1018138 C13.5133989,26.3798494 4.84139855,38.6108295 1.70408389,51.3004421 Z" id="Shape" sketch:type="MSShapeGroup"></path>
                <path d="M71.2139168,35.7258738 C72.5442418,42.6584761 71.5446999,49.2025477 69.0570424,55.0498005 C68.4601473,56.4528056 68.3850757,56.7453423 67.7564815,57.8061111 C67.543482,58.1655531 24.2227795,58.1574458 24.2227795,58.1574458 C21.8629596,58.1574458 19.9499476,60.0704579 19.9499477,62.4302778 C19.9499477,64.7900977 21.8629598,66.7031097 24.2227797,66.7031096 L69.9090227,66.7031085 C71.2660898,66.7031084 72.5424657,66.0584581 73.3479025,64.9662572 C73.4349747,64.8481842 73.5635293,64.6653367 73.7275198,64.419662 C73.9797664,64.0417707 74.2550777,63.6052568 74.5473605,63.1120221 C75.3624298,61.7365719 76.1701096,60.1594013 76.9206338,58.39529 C80.0296152,51.087612 81.2855004,42.8652427 79.6064569,34.1153954 C77.3957626,22.5950045 70.2656574,11.4759069 57.4156589,1.20908906 C55.572027,-0.263925353 52.883354,0.0365194793 51.4103395,1.88015137 C49.9373251,3.72378327 50.23777,6.41245634 52.0814019,7.88547075 C63.4001934,16.9288937 69.4033312,26.2905332 71.2139168,35.7258738 Z" id="Shape" sketch:type="MSShapeGroup"></path>
            </g>
        </g>
    </g>
</svg>